<svg xmlns="http://www.w3.org/2000/svg" width="662" height="662" viewBox="0 0 662 662" fill="none">
<rect width="662" height="662" fill="#ffffff"/>
<path d="M381.087 197.213C388.466 188.645 386.013 181.606 375.633 181.584L124.873 180.61C114.493 180.565 106 190.505 106 202.68V384.76C106 396.936 114.493 406.875 124.873 406.853L311.711 406.388C322.091 406.366 330.622 396.382 330.66 384.207L330.754 353.215C330.792 341.039 322.337 331.121 311.957 331.166L196.589 331.675C186.209 331.719 176.017 331.852 173.941 331.985C171.865 332.118 170.167 322.244 170.167 310.069V279.076C170.167 266.901 178.66 256.873 189.039 256.806L311.711 255.943C322.091 255.877 336.623 248.815 344.003 240.248L381.087 197.235V197.213Z" fill="#000000"/>
<path d="M381.087 197.213C388.466 188.645 386.013 181.606 375.633 181.584L124.873 180.61C114.493 180.565 106 190.505 106 202.68V384.76C106 396.936 114.493 406.875 124.873 406.853L311.711 406.388C322.091 406.366 330.622 396.382 330.66 384.207L330.754 353.215C330.792 341.039 322.337 331.121 311.957 331.166L196.589 331.675C186.209 331.719 176.017 331.852 173.941 331.985C171.865 332.118 170.167 322.244 170.167 310.069V279.076C170.167 266.901 178.66 256.873 189.039 256.806L311.711 255.943C322.091 255.877 336.623 248.815 344.003 240.248L381.087 197.235V197.213Z" fill="#000000"/>
<path d="M280.688 465.037C273.309 473.604 275.762 480.644 286.142 480.666L536.902 481.64C547.282 481.685 555.775 471.745 555.775 459.569V277.49C555.775 265.314 547.282 255.374 536.902 255.397L350.064 255.861C339.684 255.884 331.153 265.868 331.115 278.043L331.021 309.035C330.983 321.211 339.438 331.128 349.818 331.084L465.187 330.575C475.566 330.531 485.758 330.398 487.834 330.265C489.91 330.132 491.608 340.005 491.608 352.181V383.173C491.608 395.349 483.115 405.377 472.736 405.444L350.064 406.307C339.684 406.373 325.152 413.435 317.773 422.002L280.688 465.015V465.037Z" fill="#000000"/>
<path d="M280.688 465.037C273.309 473.604 275.762 480.644 286.142 480.666L536.902 481.64C547.282 481.685 555.775 471.745 555.775 459.569V277.49C555.775 265.314 547.282 255.374 536.902 255.397L350.064 255.861C339.684 255.884 331.153 265.868 331.115 278.043L331.021 309.035C330.983 321.211 339.438 331.128 349.818 331.084L465.187 330.575C475.566 330.531 485.758 330.398 487.834 330.265C489.91 330.132 491.608 340.005 491.608 352.181V383.173C491.608 395.349 483.115 405.377 472.736 405.444L350.064 406.307C339.684 406.373 325.152 413.435 317.773 422.002L280.688 465.015V465.037Z" fill="#000000"/>
<path d="M405.128 179.592C394.045 179.525 391.425 172.433 399.305 163.828L438.902 120.63C446.781 112.026 462.297 105 473.38 105H535.849C546.932 105 556 115.005 556 127.233V158.359C556 170.587 546.932 180.525 535.849 180.459L405.128 179.592Z" fill="#000000"/>
<path d="M256.872 482.778C267.955 482.844 270.575 489.937 262.696 498.541L223.099 541.739C215.219 550.344 199.703 557.369 188.62 557.369H126.151C115.068 557.369 106 547.364 106 535.136V504.01C106 491.782 115.068 481.844 126.151 481.91L256.872 482.778Z" fill="#000000"/>
</svg>